<svg width="16" height="14" viewBox="0 0 16 14" fill="none" xmlns="http://www.w3.org/2000/svg">
<path d="M0.690431 6.67505L0.710939 5.77954C1.77279 6.20337 2.90072 6.51326 4.09473 6.70923C5.28874 6.90519 6.54655 7.00317 7.86817 7.00317C9.19434 7.00317 10.4544 6.90747 11.6484 6.71607C12.8424 6.5201 13.9704 6.21476 15.0322 5.80005L15.0527 6.67505C13.9362 7.07154 12.7786 7.36092 11.5801 7.54321C10.3815 7.72551 9.14421 7.81665 7.86817 7.81665C6.59668 7.81665 5.35938 7.7255 4.15625 7.54321C2.95768 7.36092 1.80241 7.07153 0.690431 6.67505ZM6.8291 9.0061C6.35514 9.0061 6.11817 8.77368 6.11817 8.30884V7.37915L9.61817 7.37915V8.30884C9.61817 8.77368 9.38119 9.0061 8.90723 9.0061L6.8291 9.0061ZM2.06445 13.5793C1.41732 13.5793 0.931966 13.4198 0.608398 13.1008C0.28483 12.7864 0.123047 12.3033 0.123047 11.6516L0.123049 4.90454C0.123049 4.2574 0.284833 3.77661 0.608401 3.46216C0.931968 3.14315 1.41732 2.98364 2.06446 2.98364L13.6719 2.98364C14.3236 2.98364 14.8112 3.14315 15.1348 3.46216C15.4583 3.77661 15.6201 4.25741 15.6201 4.90454L15.6201 11.6516C15.6201 12.3033 15.4583 12.7864 15.1348 13.1008C14.8112 13.4198 14.3236 13.5793 13.6719 13.5793L2.06445 13.5793ZM2.07129 12.7454L13.665 12.7454C14.0387 12.7454 14.3167 12.6519 14.499 12.4651C14.6859 12.2828 14.7793 12.0002 14.7793 11.6174L14.7793 4.94556C14.7793 4.56275 14.6859 4.28019 14.499 4.0979C14.3167 3.91105 14.0387 3.81763 13.665 3.81763L2.07129 3.81763C1.70215 3.81763 1.42416 3.91105 1.23731 4.0979C1.05501 4.28019 0.963869 4.56274 0.963869 4.94556L0.963867 11.6174C0.963867 12.0002 1.05501 12.2828 1.2373 12.4651C1.42415 12.6519 1.70215 12.7454 2.07129 12.7454ZM4.50489 3.44849V2.21802C4.50489 1.66203 4.65983 1.24504 4.96973 0.967041C5.27963 0.689046 5.6989 0.550049 6.22754 0.550049L9.50196 0.55005C10.0579 0.55005 10.4841 0.689047 10.7803 0.967042C11.0811 1.24504 11.2314 1.66203 11.2314 2.21802L11.2314 3.44165L10.4111 3.44165L10.4111 2.17017C10.4111 1.90129 10.3337 1.69393 10.1787 1.5481C10.0238 1.40226 9.80502 1.32935 9.52246 1.32935L6.21387 1.32935C5.93132 1.32935 5.71257 1.40226 5.55762 1.5481C5.40267 1.69393 5.3252 1.90129 5.3252 2.17017V3.44849L4.50489 3.44849Z" fill="white"/>
</svg>
