<svg width="14" height="14" viewBox="0 0 14 14" fill="none" xmlns="http://www.w3.org/2000/svg">
<path d="M3.15723 7.73462C3.04785 7.73462 2.95671 7.69816 2.88379 7.62524C2.81543 7.55233 2.78125 7.46346 2.78125 7.35864C2.78125 7.25838 2.81543 7.17179 2.88379 7.09888C2.95671 7.02596 3.04785 6.9895 3.15723 6.9895L6.5 6.9895L6.5 2.56665C6.5 2.46183 6.53646 2.37524 6.60938 2.30688C6.68229 2.23397 6.76888 2.19751 6.86914 2.19751C6.97852 2.19751 7.06738 2.23397 7.13574 2.30688C7.20866 2.37524 7.24512 2.46183 7.24512 2.56665L7.24512 7.35864C7.24512 7.46346 7.20866 7.55233 7.13574 7.62524C7.06738 7.69816 6.97852 7.73462 6.86914 7.73462L3.15723 7.73462ZM6.87597 13.9211C5.93717 13.9211 5.05306 13.7411 4.22363 13.3811C3.39876 13.0256 2.6696 12.5334 2.03613 11.9045C1.40723 11.2711 0.912759 10.5419 0.552734 9.71704C0.197265 8.88761 0.019531 8.0035 0.0195312 7.0647C0.0195315 6.12589 0.197266 5.24406 0.552735 4.41919C0.912761 3.58976 1.40723 2.86059 2.03613 2.23169C2.66504 1.59822 3.39193 1.10376 4.2168 0.74829C5.04623 0.388264 5.93034 0.208252 6.86914 0.208252C7.80794 0.208252 8.69206 0.388265 9.52149 0.748292C10.3509 1.10376 11.0801 1.59823 11.709 2.23169C12.3379 2.8606 12.8324 3.58976 13.1924 4.41919C13.5524 5.24406 13.7324 6.1259 13.7324 7.0647C13.7324 8.0035 13.5524 8.88762 13.1924 9.71704C12.8324 10.5419 12.3379 11.2711 11.709 11.9045C11.0801 12.5334 10.3509 13.0256 9.52148 13.3811C8.69661 13.7411 7.81478 13.9211 6.87597 13.9211ZM6.87598 13.0393C7.70084 13.0393 8.47331 12.8844 9.19336 12.5745C9.91797 12.2646 10.5537 11.8362 11.1006 11.2893C11.652 10.7424 12.0804 10.109 12.3857 9.38892C12.6956 8.66431 12.8506 7.88957 12.8506 7.0647C12.8506 6.23983 12.6956 5.46737 12.3857 4.74732C12.0758 4.02271 11.6475 3.38696 11.1006 2.84009C10.5537 2.28866 9.91797 1.86027 9.19336 1.55493C8.47331 1.24504 7.69857 1.09009 6.86914 1.09009C6.04427 1.09009 5.26953 1.24504 4.54492 1.55493C3.82487 1.86027 3.19141 2.28865 2.64453 2.84009C2.10221 3.38696 1.67611 4.0227 1.36621 4.74731C1.06087 5.46737 0.908203 6.23983 0.908203 7.0647C0.908203 7.88957 1.06087 8.6643 1.36621 9.38891C1.67611 10.109 2.10449 10.7424 2.65137 11.2893C3.19824 11.8362 3.8317 12.2646 4.55176 12.5745C5.27181 12.8844 6.04655 13.0393 6.87598 13.0393Z" fill="white"/>
</svg>
